<svg id="Layer_1" data-name="Layer 1" xmlns="http://www.w3.org/2000/svg" viewBox="0 0 1080 1080"><defs><style>.cls-1{stroke:#000;stroke-miterlimit:10;stroke-width:7px;}</style></defs><path class="cls-1" d="M1059.78,531.36A5526.67,5526.67,0,0,0,479.94,638q-4.86-14.72-10.89-28.94c-26.72-63-67.76-116.63-110.68-169a587.79,587.79,0,0,0,20.76-103c5.37-49.53,6.92-103.54-7.11-151.82-12.42-42.78-41.89-80.45-87.81-88.36-38.81-6.68-74.88,15.2-84.28,53.94-10.64,43.86,8.58,89.87,30.23,127.12,28.37,48.84,64.26,92.64,100.25,136q11.14,13.41,22.44,27.12C327.6,525.27,283.63,603.91,224.52,669a567.13,567.13,0,0,1-55.69,53.26q-21.44,6.5-42.81,13.14c-37.39,11.66-84.88,26.52-102.64,65.3C2.67,845.9,39.65,892.29,72,920.57c34.52,30.19,77.37,50.32,122.31,59,93.93,18.26,188.38-17.94,246.88-93.47,28-36.19,47-79.78,52.71-125.3,5-39.82-.46-80-12.43-118.1q241.59-57.9,487.73-93.87,45.64-6.66,91.38-12.55C1063.79,535.91,1063,530.94,1059.78,531.36ZM272.94,333.61c-31-42.28-64-90-69.91-143.56-2.63-23.68.6-49.41,16.89-67.91,17.66-20,45-25.14,70.11-18.83,57.7,14.48,79.81,73.49,85.28,127C380.7,283,376.46,337.23,366,389c-3.16,15.59-7,31-11.45,46.32C326.86,401.73,298.57,368.53,272.94,333.61ZM344.1,482.69q6.9-18.26,12.6-36.93c48,58.68,95.1,121.78,118.63,193.33q-83.82,20.17-167,42.92-64,17.57-127.64,36.69C253.62,655,309.83,573.25,344.1,482.69ZM490,711.84c7.52,102.17-52.91,203.08-145.77,246.1S133.4,977.29,62.09,904.33C43.21,885,24.67,860.55,22.63,832.64c-2-27.67,14.94-49.55,37-64C80.49,755.06,104.48,747.34,128,740q19.4-6,38.82-11.92a2.23,2.23,0,0,0,2.94,0c.53-.45,1-.91,1.57-1.35q22.45-6.8,45-13.4,129.36-37.93,260.5-69.43A301.32,301.32,0,0,1,490,711.84Z"/><path class="cls-1" d="M725.86,557.61l-143.58-39c-15.17-4.12-31.76-7.15-47-12.58L519,441c1.19-1.33,2.42-2.63,3.68-3.88,12.88-12.78,25.43-24.23,30.85-42.2a72.94,72.94,0,0,0-1.38-46.3c-11.39-30.28-43.47-47.54-75-44.13-3.23.35-2.43,5.32.78,5,46.5-5,84.38,38.18,70.84,83.69-5.44,18.28-18.94,29.07-31.32,41.84l-3.41-13.62c-.78-3.12-5.75-2.36-5,.79l4.31,17.22c-1,1.1-2,2.17-3,3.32-9.07,10.87-16.23,25.62-11.84,40,3.55,11.59,13.63,18.9,24.22,23.71,2.67,1.21,5.4,2.31,8.16,3.35l8.3,33.19c.78,3.13,5.76,2.36,5-.78l-7.6-30.4c15.84,5.31,32.78,8.61,48.57,12.9l138.8,37.68C727.18,563.16,729,558.46,725.86,557.61ZM521.6,500.22C495.72,486.87,501,464,515.07,445.8l14.52,58.06C526.87,502.74,524.19,501.55,521.6,500.22Z"/></svg>